<svg width="24" height="25" viewBox="0 0 24 25" fill="none" xmlns="http://www.w3.org/2000/svg">
<path d="M12.2453 0.767969C9.91599 0.763231 7.63751 1.44926 5.69799 2.7393C3.75846 4.02934 2.24497 5.86547 1.34887 8.01557C0.452758 10.1657 0.214288 12.5332 0.663563 14.8188C1.11284 17.1044 2.22965 19.2056 3.87291 20.8565C5.51617 22.5075 7.61211 23.6341 9.89562 24.094C12.1791 24.554 14.5476 24.3265 16.7019 23.4405C18.8562 22.5544 20.6993 21.0495 21.9984 19.1161C23.2975 17.1826 23.9942 14.9073 24.0004 12.578C24.0055 11.0303 23.7053 9.49672 23.1171 8.06513C22.5288 6.63355 21.664 5.33202 20.5721 4.23506C19.4803 3.13809 18.1828 2.26722 16.754 1.6723C15.3252 1.07737 13.7931 0.770064 12.2453 0.767969ZM12.2163 21.98C10.3507 21.979 8.52738 21.4249 6.97667 20.3878C5.42596 19.3506 4.21747 17.877 3.50414 16.1532C2.79081 14.4294 2.60469 12.5328 2.9691 10.7032C3.33352 8.87353 4.23213 7.19303 5.5515 5.87408C6.87087 4.55513 8.55171 3.65696 10.3815 3.29313C12.2112 2.9293 14.1077 3.11612 15.8313 3.83C17.5549 4.54387 19.0282 5.75275 20.0648 7.3038C21.1014 8.85484 21.6549 10.6784 21.6553 12.544C21.6551 13.7833 21.4109 15.0105 20.9365 16.1555C20.4621 17.3005 19.7668 18.3408 18.8902 19.217C18.0137 20.0932 16.9732 20.7882 15.8281 21.2623C14.683 21.7364 13.4557 21.9802 12.2163 21.98Z" fill="#8AD690"/>
<path d="M12.2453 0.767969C9.91599 0.763231 7.63751 1.44926 5.69799 2.7393C3.75846 4.02934 2.24497 5.86547 1.34887 8.01557C0.452758 10.1657 0.214288 12.5332 0.663563 14.8188C1.11284 17.1044 2.22965 19.2056 3.87291 20.8565C5.51617 22.5075 7.61211 23.6341 9.89562 24.094C12.1791 24.554 14.5476 24.3265 16.7019 23.4405C18.8562 22.5544 20.6993 21.0495 21.9984 19.1161C23.2975 17.1826 23.9942 14.9073 24.0004 12.578C24.0055 11.0303 23.7053 9.49672 23.1171 8.06513C22.5288 6.63355 21.664 5.33202 20.5721 4.23506C19.4803 3.13809 18.1828 2.26722 16.754 1.6723C15.3252 1.07737 13.7931 0.770064 12.2453 0.767969ZM12.2163 21.98C10.3507 21.979 8.52738 21.4249 6.97667 20.3878C5.42596 19.3506 4.21747 17.877 3.50414 16.1532C2.79081 14.4294 2.60469 12.5328 2.9691 10.7032C3.33352 8.87353 4.23213 7.19303 5.5515 5.87408C6.87087 4.55513 8.55171 3.65696 10.3815 3.29313C12.2112 2.9293 14.1077 3.11612 15.8313 3.83C17.5549 4.54387 19.0282 5.75275 20.0648 7.3038C21.1014 8.85484 21.6549 10.6784 21.6553 12.544C21.6551 13.7833 21.4109 15.0105 20.9365 16.1555C20.4621 17.3005 19.7668 18.3408 18.8902 19.217C18.0137 20.0932 16.9732 20.7882 15.8281 21.2623C14.683 21.7364 13.4557 21.9802 12.2163 21.98Z" fill="#8AD690"/>
<path d="M18.6971 9.97L9.98523 18.682C9.966 18.7013 9.94311 18.7165 9.91797 18.727C9.89283 18.7374 9.86584 18.7428 9.83862 18.7428C9.81141 18.7428 9.78454 18.7374 9.7594 18.727C9.73426 18.7165 9.71137 18.7013 9.69214 18.682L5.75623 14.741C5.71787 14.7021 5.69629 14.6496 5.69629 14.595C5.69629 14.5404 5.71787 14.4879 5.75623 14.449L7.10718 13.094C7.12642 13.0746 7.14933 13.0592 7.17456 13.0487C7.19979 13.0382 7.22682 13.0327 7.25415 13.0327C7.28148 13.0327 7.30851 13.0382 7.33374 13.0487C7.35897 13.0592 7.38188 13.0746 7.40112 13.094L9.70923 15.458C9.72871 15.4781 9.75194 15.494 9.77771 15.5049C9.80348 15.5158 9.83115 15.5215 9.85913 15.5215C9.88711 15.5215 9.91479 15.5158 9.94055 15.5049C9.96632 15.494 9.98967 15.4781 10.0092 15.458L17.1002 8.367C17.1392 8.32804 17.1921 8.30615 17.2472 8.30615C17.3023 8.30615 17.3552 8.32804 17.3942 8.367L18.6942 9.67801C18.7136 9.69695 18.7291 9.71953 18.7397 9.74448C18.7504 9.76942 18.7561 9.79623 18.7563 9.82336C18.7566 9.8505 18.7515 9.87743 18.7413 9.90259C18.7312 9.92775 18.7162 9.95066 18.6971 9.97Z" fill="#8AD690"/>
</svg>
