<svg width="24" height="25" viewBox="0 0 24 25" fill="none" xmlns="http://www.w3.org/2000/svg">
<path d="M23.4321 15.691C23.0081 15.319 22.5701 14.9621 22.1631 14.5731C22.0572 14.4448 21.9999 14.2834 22.0011 14.1171C21.9901 13.2891 22.0331 12.458 21.9881 11.632C21.9687 11.5123 21.9832 11.3895 22.0301 11.2777C22.0769 11.1658 22.1542 11.0693 22.2531 10.999C22.6531 10.674 23.0441 10.3191 23.4351 9.97505C23.5697 9.88226 23.6845 9.76353 23.7727 9.62582C23.8609 9.48812 23.9207 9.3342 23.9486 9.17309C23.9765 9.01197 23.9721 8.8469 23.9354 8.68755C23.8987 8.52819 23.8306 8.37776 23.7351 8.24505C23.1711 7.25305 22.6014 6.26505 22.0261 5.28105C21.8919 4.98804 21.6477 4.75974 21.3462 4.64573C21.0448 4.53171 20.7106 4.54117 20.4161 4.67205C19.8671 4.85205 19.3281 5.05805 18.7771 5.22205C18.6252 5.25375 18.467 5.22998 18.3311 5.15505C17.5738 4.73439 16.8191 4.30105 16.0671 3.85505C15.9232 3.76564 15.8166 3.62707 15.7671 3.46505C15.6311 2.90505 15.5381 2.32905 15.4211 1.77005C15.3908 1.47041 15.2472 1.19366 15.0197 0.996284C14.7922 0.798914 14.498 0.695814 14.1971 0.708046C12.9861 0.685046 11.7721 0.685046 10.5611 0.708046C10.2606 0.697317 9.96725 0.801129 9.74038 0.998474C9.51352 1.19582 9.37008 1.47197 9.33909 1.77105C9.22409 2.33605 9.1301 2.90705 8.9931 3.46605C8.9427 3.62761 8.83632 3.7659 8.6931 3.85605C7.9481 4.30405 7.19309 4.73605 6.43009 5.15605C6.29429 5.23126 6.13572 5.25436 5.9841 5.22105C5.4191 5.05905 4.86709 4.84005 4.30609 4.65905C4.02193 4.54081 3.70338 4.5354 3.41537 4.64391C3.12736 4.75243 2.89159 4.9667 2.7561 5.24305C2.1641 6.24972 1.57976 7.26139 1.00309 8.27805C0.824208 8.53806 0.754 8.85768 0.807429 9.16872C0.860859 9.47977 1.03369 9.75763 1.28909 9.94305C1.71109 10.318 2.1531 10.6701 2.5581 11.0601C2.67842 11.1942 2.74686 11.3669 2.75109 11.5471C2.77043 12.4044 2.77043 13.2611 2.75109 14.1171C2.74713 14.2971 2.67905 14.4698 2.55909 14.604C2.16509 14.985 1.73609 15.3311 1.32209 15.6951C1.18678 15.7869 1.07134 15.9051 0.982646 16.0425C0.893952 16.1799 0.833819 16.3338 0.805827 16.4949C0.777835 16.6561 0.782558 16.8212 0.819713 16.9805C0.856867 17.1397 0.925689 17.2899 1.02209 17.4221C1.58342 18.4134 2.15309 19.4007 2.73109 20.384C2.86473 20.6773 3.1085 20.9062 3.40963 21.0211C3.71076 21.136 4.04504 21.1277 4.3401 20.998C4.8891 20.819 5.42809 20.615 5.97909 20.451C6.13033 20.4164 6.28905 20.4384 6.42509 20.513C7.18242 20.9317 7.9371 21.365 8.6891 21.813C8.83215 21.9034 8.93847 22.0416 8.9891 22.203C9.1241 22.748 9.21609 23.303 9.32809 23.854C9.34058 24.0136 9.38448 24.1691 9.45727 24.3116C9.53006 24.4541 9.63029 24.5808 9.75222 24.6844C9.87415 24.788 10.0154 24.8665 10.1677 24.9154C10.3201 24.9642 10.4806 24.9825 10.6401 24.969C11.2181 24.984 11.7961 24.969 12.3741 24.969H14.1851C14.4849 24.9724 14.7754 24.8655 15.0015 24.6685C15.2275 24.4716 15.3733 24.1985 15.4111 23.901C15.5251 23.351 15.6501 22.801 15.7361 22.245C15.7468 22.1434 15.7852 22.0467 15.8471 21.9654C15.909 21.8841 15.992 21.8214 16.0871 21.784C16.8271 21.3841 17.5591 20.9641 18.2751 20.521C18.3558 20.4589 18.4518 20.4195 18.5529 20.407C18.654 20.3946 18.7567 20.4094 18.8501 20.4501C19.3631 20.6431 19.8841 20.82 20.4031 20.9921C20.6967 21.1241 21.0305 21.1352 21.3323 21.0229C21.634 20.9106 21.8793 20.684 22.0151 20.3921C22.5918 19.4081 23.1614 18.42 23.7241 17.428C23.8211 17.2956 23.8907 17.1451 23.9286 16.9853C23.9664 16.8256 23.9719 16.6598 23.9447 16.4979C23.9175 16.336 23.8581 16.1812 23.7701 16.0426C23.682 15.904 23.5671 15.7845 23.4321 15.691ZM12.3651 17.666C11.2504 17.6614 10.1717 17.2705 9.31286 16.5599C8.45401 15.8492 7.8681 14.8628 7.65493 13.7686C7.44176 12.6745 7.61451 11.5402 8.14376 10.5591C8.67302 9.57804 9.52605 8.81078 10.5575 8.38805C11.589 7.96531 12.7351 7.91324 13.8007 8.24072C14.8662 8.5682 15.7853 9.25496 16.4013 10.184C17.0173 11.1131 17.2922 12.227 17.1791 13.336C17.066 14.445 16.572 15.4805 15.7811 16.2661C14.8722 17.1665 13.6435 17.6699 12.3641 17.666H12.3651Z" fill="#BDBDBD"/>
</svg>
