<svg width="60" height="60" viewBox="0 0 60 60" fill="none" xmlns="http://www.w3.org/2000/svg">
<path d="M30 60C46.5685 60 60 46.5685 60 30C60 13.4315 46.5685 0 30 0C13.4315 0 0 13.4315 0 30C0 46.5685 13.4315 60 30 60Z" fill="#008579"/>
<path d="M31.334 36.55L36.694 31.19C36.895 30.9889 37.008 30.7163 37.008 30.432C37.008 30.1477 36.895 29.875 36.694 29.674L31.334 24.316C31.1325 24.1173 30.8606 24.0063 30.5775 24.0073C30.2945 24.0083 30.0234 24.1211 29.8233 24.3212C29.6232 24.5214 29.5103 24.7925 29.5093 25.0755C29.5083 25.3585 29.6193 25.6305 29.818 25.832L33.348 29.362H23.072C22.7877 29.362 22.515 29.4749 22.314 29.676C22.1129 29.877 22 30.1497 22 30.434C22 30.7183 22.1129 30.991 22.314 31.192C22.515 31.393 22.7877 31.506 23.072 31.506H33.347L29.817 35.036C29.7163 35.1353 29.6363 35.2535 29.5815 35.3838C29.5267 35.5142 29.4982 35.6541 29.4977 35.7955C29.4972 35.9369 29.5247 36.077 29.5786 36.2078C29.6325 36.3385 29.7117 36.4573 29.8117 36.5573C29.9117 36.6573 30.0305 36.7365 30.1612 36.7904C30.2919 36.8443 30.432 36.8718 30.5735 36.8713C30.7149 36.8708 30.8548 36.8423 30.9851 36.7875C31.1155 36.7327 31.2337 36.6527 31.333 36.552L31.334 36.55Z" fill="white"/>
</svg>
